<?xml version="1.0" standalone="no"?>
<!DOCTYPE svg PUBLIC "-//W3C//DTD SVG 20010904//EN"
 "http://www.w3.org/TR/2001/REC-SVG-20010904/DTD/svg10.dtd">
<svg version="1.0" xmlns="http://www.w3.org/2000/svg"
 width="368.000000pt" height="349.000000pt" viewBox="0 0 368.000000 349.000000"
 preserveAspectRatio="xMidYMid meet">
<metadata>
Created by potrace 1.16, written by Peter Selinger 2001-2019
</metadata>
<g transform="translate(0.000000,349.000000) scale(0.100000,-0.100000)"
fill="#000000" stroke="none">
<path d="M1817 3383 c-4 -3 -7 -19 -7 -35 0 -25 -4 -28 -40 -34 -36 -6 -40
-10 -40 -35 0 -27 3 -29 39 -29 45 0 47 -5 57 -112 4 -38 10 -68 14 -68 4 0
11 28 14 63 14 117 14 117 57 117 37 0 39 2 39 30 0 27 -4 30 -39 36 -38 6
-39 7 -34 40 5 32 4 34 -24 34 -16 0 -33 -3 -36 -7z"/>
<path d="M239 3278 c-33 -61 -34 -67 -34 -173 1 -114 -1 -107 63 -255 3 -8
-12 0 -35 18 -22 17 -46 32 -51 32 -30 0 -22 -141 13 -239 22 -65 88 -153 167
-225 l72 -66 -49 0 c-28 0 -88 7 -135 15 -109 19 -120 19 -120 -3 0 -76 140
-229 254 -277 l68 -29 -58 -12 c-33 -7 -78 -13 -102 -13 -56 -1 -64 -21 -25
-69 39 -48 104 -88 171 -105 53 -13 53 -13 26 -26 l-27 -12 23 -24 c51 -54
228 -90 328 -67 47 11 48 10 27 -22 -12 -19 -13 -33 -5 -75 5 -28 15 -74 20
-103 9 -45 8 -55 -7 -74 -10 -12 -42 -52 -71 -88 l-54 -66 -92 1 c-100 2 -141
-11 -191 -57 -43 -40 -30 -58 47 -65 77 -6 118 -29 213 -119 33 -32 70 -62 82
-69 56 -29 101 -3 156 92 15 27 31 46 36 43 4 -3 23 -36 40 -73 18 -37 41 -79
52 -94 24 -34 25 -75 1 -87 -10 -5 -61 -5 -119 0 -197 16 -221 -20 -239 -363
-11 -208 -24 -201 399 -207 l319 -4 82 -62 c82 -62 218 -149 312 -200 l51 -28
54 27 c93 48 251 151 344 226 l90 72 175 13 c230 17 389 34 417 45 12 4 30 20
40 35 16 25 16 38 0 262 -12 163 -21 238 -29 244 -9 5 -9 8 -1 8 28 0 124 104
155 168 30 61 33 75 33 157 -1 77 -5 98 -29 147 -34 72 -101 140 -167 169 -47
22 -50 25 -46 54 3 19 -2 42 -15 62 l-19 32 88 -6 c117 -8 187 11 283 77 13 9
11 13 -9 29 l-24 18 39 7 c60 12 126 50 172 100 63 68 63 68 -81 87 l-96 12
78 38 c49 24 98 58 133 92 54 54 108 143 108 180 0 16 -5 18 -37 13 -74 -12
-266 -27 -271 -21 -3 3 5 13 19 22 67 45 157 151 198 235 38 75 44 96 48 169
6 111 -2 122 -59 79 -23 -19 -48 -38 -54 -42 -7 -5 -1 19 13 52 65 163 66 314
0 410 -32 48 -43 47 -56 -7 -17 -65 -43 -105 -120 -186 -79 -83 -171 -139
-283 -172 -86 -26 -124 -33 -318 -60 -146 -20 -241 -49 -273 -84 -14 -15 -36
-64 -51 -116 -35 -115 -46 -130 -109 -161 -29 -13 -64 -31 -79 -40 -22 -12
-37 -13 -85 -4 -32 6 -73 14 -90 17 -18 3 -33 9 -33 13 0 12 29 40 41 40 5 0
14 11 19 25 5 13 24 31 42 39 132 56 218 189 219 339 1 94 -27 169 -89 238
-47 53 -124 109 -149 109 -31 0 -10 -37 36 -62 56 -31 112 -94 142 -163 56
-126 4 -311 -110 -390 -40 -27 -51 -30 -51 -15 0 10 8 20 61 79 105 115 105
284 1 402 -35 41 -133 92 -165 87 -16 -3 -7 -9 32 -22 63 -22 134 -82 163
-140 43 -84 32 -239 -20 -291 l-26 -26 -20 38 c-11 21 -21 44 -22 51 -6 32
-15 40 -60 56 -60 20 -124 20 -171 1 -49 -21 -68 -39 -93 -91 -40 -81 -57 -81
-102 3 -33 62 -42 103 -33 168 13 107 91 196 206 235 47 16 50 19 23 19 -46 1
-148 -54 -185 -100 -88 -111 -92 -273 -10 -359 33 -34 35 -41 23 -57 -13 -17
-16 -15 -53 26 -51 57 -73 130 -67 225 8 118 75 218 181 273 45 22 59 49 25
47 -19 -1 -129 -86 -166 -128 -48 -55 -77 -139 -77 -226 0 -64 5 -85 31 -140
18 -36 45 -80 61 -99 29 -34 29 -34 56 -16 15 9 24 21 22 26 -8 11 42 35 90
43 29 5 36 4 25 -3 -8 -6 -21 -11 -29 -11 -25 0 -141 -84 -138 -100 2 -8 10
-14 19 -14 10 1 16 -3 15 -9 -1 -7 8 -13 20 -15 12 -2 27 -10 33 -18 7 -8 19
-14 27 -14 11 0 11 -4 3 -20 -14 -26 -36 -25 -75 4 -36 28 -94 46 -146 46 -20
0 -41 6 -47 13 -6 7 -20 46 -31 87 -26 91 -54 122 -129 144 -79 22 -101 39
-108 87 -8 51 -36 50 -45 -1 -5 -33 -6 -33 -12 -10 -4 14 -8 47 -9 74 -2 37
-8 52 -23 60 -11 6 -25 18 -32 27 -8 11 -21 15 -38 11 -26 -5 -27 -6 -24 -76
1 -39 -1 -82 -5 -95 -8 -23 -11 -23 -75 -18 -88 8 -248 57 -313 97 -123 75
-220 184 -259 292 -12 32 -25 58 -29 58 -4 0 -22 -28 -41 -62z m46 -37 c3 -16
22 -55 40 -86 117 -193 246 -267 539 -311 102 -16 115 -20 125 -41 11 -23 15
-73 7 -73 -2 0 -50 9 -106 20 -125 25 -207 57 -295 115 -80 53 -81 38 0 -27
85 -69 213 -132 354 -175 17 -5 -34 -39 -74 -49 -14 -3 -28 -11 -31 -16 -4 -7
21 -8 73 -3 78 7 80 6 86 -16 4 -13 4 -25 1 -28 -11 -11 -134 -13 -181 -3 -64
14 -149 46 -193 73 l-35 22 25 9 25 10 -35 13 c-132 47 -259 158 -317 276 -44
88 -60 185 -44 262 14 63 26 73 36 28z m3111 -65 c20 -171 -116 -391 -291
-472 -41 -19 -81 -34 -89 -34 -9 0 -16 -4 -16 -10 0 -5 9 -10 20 -10 65 0 -51
-58 -182 -92 -87 -22 -182 -21 -242 2 -28 10 -28 11 -10 25 15 11 39 13 107 8
62 -4 87 -3 87 6 0 6 -8 11 -17 11 -10 1 -38 11 -63 24 l-45 24 45 11 c68 18
168 59 236 97 66 36 174 119 174 134 0 4 -36 -13 -79 -40 -89 -53 -191 -88
-362 -124 -118 -25 -181 -49 -211 -83 -9 -10 -31 -55 -48 -99 -19 -51 -42 -92
-63 -111 -36 -36 -160 -90 -165 -73 -2 6 -15 24 -28 39 -28 34 -25 38 58 74
69 31 88 58 125 177 14 47 33 93 41 103 22 26 94 43 297 72 342 48 418 76 541
199 58 59 91 102 120 158 43 86 48 84 60 -16z m-3111 -401 c124 -100 277 -186
409 -230 42 -14 133 -34 202 -45 70 -10 128 -21 130 -23 3 -2 -5 -16 -16 -30
l-21 -26 42 -3 41 -3 -23 -29 c-20 -25 -21 -29 -5 -23 46 18 62 16 90 -9 l30
-26 -24 -18 c-44 -33 -164 -88 -230 -105 -74 -20 -143 -16 -210 11 l-45 18 90
18 c91 18 201 54 211 69 2 5 -14 1 -38 -7 -26 -10 -80 -17 -138 -17 -89 -2
-100 0 -163 31 -37 18 -67 36 -67 40 0 4 69 7 153 8 140 0 267 16 267 32 0 4
-78 7 -173 7 -132 1 -187 5 -235 18 -141 39 -229 99 -292 197 -48 75 -92 230
-57 203 6 -6 39 -32 72 -58z m3164 9 c-32 -131 -124 -255 -225 -301 -109 -50
-187 -65 -363 -69 -90 -2 -166 -6 -169 -8 -13 -14 103 -30 247 -35 l165 -6
-55 -30 c-47 -25 -67 -30 -151 -33 -73 -3 -111 0 -149 12 -70 23 -71 14 -2
-17 55 -24 187 -57 235 -57 23 -1 23 -1 -2 -14 -46 -25 -131 -37 -187 -27
-106 21 -254 96 -288 147 -9 14 -14 28 -12 31 3 2 29 -3 58 -11 29 -9 55 -14
57 -11 3 3 -7 19 -23 35 l-29 30 54 0 54 0 -28 29 -28 29 48 7 c117 16 234 39
304 61 134 42 335 156 455 258 22 19 41 33 43 31 2 -1 -2 -24 -9 -51z m-2231
15 c63 -13 85 -38 105 -119 9 -36 20 -75 23 -87 6 -21 3 -23 -29 -23 -30 0
-39 6 -58 37 -13 20 -43 59 -67 86 -32 36 -42 55 -38 71 3 11 6 27 6 34 0 15
-3 14 58 1z m-937 -458 c52 -11 128 -22 169 -26 78 -7 130 -21 130 -36 0 -5
-11 -9 -24 -9 -14 0 -28 -4 -31 -10 -3 -5 2 -10 13 -10 10 0 54 -17 96 -39 89
-45 85 -50 -39 -58 -133 -8 -260 31 -350 110 -41 36 -83 97 -67 97 6 0 52 -9
103 -19z m3195 -16 c-78 -119 -279 -193 -445 -165 l-73 12 60 33 c33 19 76 37
96 40 44 9 48 25 6 25 -74 0 2 39 80 41 19 0 91 11 160 23 69 12 127 21 129
19 2 -1 -4 -14 -13 -28z m-2295 -60 c-25 -43 -11 -46 42 -9 21 14 41 23 44 20
3 -3 -2 -26 -11 -52 -9 -26 -15 -49 -13 -51 2 -1 21 15 42 37 22 22 43 40 47
40 37 0 -61 -176 -125 -224 -38 -28 -97 -59 -103 -54 -2 3 16 44 41 92 51 99
59 138 18 84 -16 -20 -43 -49 -61 -63 -33 -28 -143 -78 -151 -69 -3 2 9 19 26
37 39 42 73 88 73 98 0 5 -20 -7 -45 -26 -51 -39 -129 -65 -189 -65 l-41 1 41
37 c44 40 65 52 184 104 41 18 100 47 130 65 30 18 59 33 63 33 5 0 0 -16 -12
-35z m1343 10 c18 -14 89 -50 157 -81 115 -51 208 -108 209 -127 0 -13 -112 4
-162 25 -25 11 -56 31 -69 44 -12 13 -26 24 -31 24 -14 0 18 -52 60 -97 22
-25 33 -43 25 -43 -34 0 -127 58 -174 107 -47 49 -51 52 -45 26 4 -15 24 -63
44 -105 21 -43 36 -78 34 -78 -3 0 -21 10 -41 22 -53 32 -100 78 -124 123 -28
54 -35 22 -8 -40 l20 -45 -24 17 c-13 10 -31 30 -40 46 -18 31 -33 167 -18
167 5 0 29 -22 52 -50 24 -27 47 -50 52 -50 5 0 0 23 -11 50 -11 28 -20 55
-20 61 0 5 20 -2 43 -16 59 -34 70 -32 46 10 -25 42 -19 44 25 10z m-1098
-130 c-3 -27 -8 -61 -11 -75 -4 -16 4 -7 23 23 43 71 48 74 66 39 15 -29 15
-35 0 -72 -17 -43 -30 -51 -36 -22 -3 12 -9 6 -23 -22 -19 -40 -134 -170 -142
-162 -3 3 7 44 21 93 49 169 44 181 -23 53 -82 -157 -136 -223 -197 -244 -26
-9 -49 -14 -51 -12 -4 4 114 171 225 317 31 42 72 98 91 125 32 46 34 47 48
28 10 -13 13 -34 9 -69z m-695 -79 l-32 -33 63 -8 63 -8 -70 -33 c-38 -18 -92
-40 -119 -49 -61 -18 -188 -19 -239 -1 -38 14 -107 61 -107 74 0 4 55 16 123
25 67 10 169 29 227 42 58 12 109 23 114 24 6 1 -5 -14 -23 -33z m2580 -42
c38 -4 69 -10 69 -15 0 -18 -82 -68 -131 -79 -90 -22 -181 -9 -294 41 -84 37
-95 44 -70 47 17 1 45 5 64 8 l34 5 -31 32 -32 32 161 -32 c89 -17 192 -35
230 -39z m-1731 -49 c0 -7 -9 -20 -20 -30 -23 -21 -26 -45 -7 -64 10 -10 7
-16 -13 -32 -20 -15 -34 -18 -70 -14 -98 13 -97 11 -38 74 29 31 69 68 88 83
32 25 36 26 48 11 6 -9 12 -22 12 -28z m-586 -9 c-9 -24 -111 -96 -183 -129
-51 -23 -84 -31 -146 -35 -77 -4 -165 10 -165 27 0 4 75 36 166 71 119 46 177
63 207 62 23 -1 58 2 77 7 50 13 50 13 44 -3z m1791 -1 c49 -1 89 -13 222 -66
89 -35 163 -67 163 -70 0 -16 -96 -31 -166 -26 -61 4 -91 13 -157 46 -45 23
-105 61 -132 86 -47 44 -48 46 -20 38 17 -4 57 -8 90 -8z m-1730 -25 c-8 -24
5 -26 46 -4 17 8 33 14 35 11 2 -2 -33 -54 -78 -115 l-83 -111 -53 -7 c-29 -3
-55 -4 -57 -2 -3 2 16 29 42 59 25 30 69 84 96 122 28 37 52 67 54 67 3 0 1
-9 -2 -20z m795 -64 c0 -28 -480 -314 -511 -304 -9 3 96 158 107 158 3 0 4 -8
2 -17 -5 -30 26 -18 212 76 169 86 190 95 190 87z m241 -136 c47 -13 80 -50
89 -99 8 -43 -5 -150 -20 -165 -6 -6 -31 13 -64 48 l-55 57 -73 -7 c-75 -7
-102 -18 -94 -39 2 -6 -11 -26 -30 -45 -19 -18 -34 -39 -34 -46 0 -8 -4 -14
-9 -14 -15 0 6 81 29 112 12 16 20 31 18 33 -1 2 -17 -3 -35 -10 -19 -8 -40
-29 -52 -52 -12 -23 -20 -31 -21 -20 -1 55 58 110 139 129 59 13 132 1 197
-34 l39 -20 -20 22 c-28 31 -88 60 -125 60 -18 0 -29 4 -25 10 17 28 118 -1
169 -48 25 -24 27 -24 17 -5 -19 36 -77 74 -128 83 -47 9 -46 9 19 7 49 -2 72
-8 88 -22 18 -16 20 -16 14 -2 -10 28 -68 57 -115 58 -34 0 -39 2 -24 9 27 12
63 12 106 0z m-437 -95 c-159 -143 -281 -187 -504 -182 -77 1 -103 -2 -135
-18 -66 -32 -120 -95 -170 -199 -29 -60 -54 -97 -66 -101 -22 -7 -47 7 -127
72 -29 23 -54 43 -55 43 -1 0 -20 7 -42 15 l-40 14 51 1 c28 0 71 -7 95 -16
l44 -15 30 38 c75 94 131 145 194 176 l66 32 185 0 c181 0 186 1 250 29 36 15
106 54 155 85 50 32 92 56 94 55 2 -2 -10 -15 -25 -29z m1244 -72 c37 -21 41
-27 36 -51 -10 -41 -12 -42 -62 -42 -64 -1 -164 46 -160 75 2 14 18 25 53 37
56 18 72 16 133 -19z m-198 -16 c0 -16 -16 -37 -49 -65 -76 -64 -134 -80 -144
-40 -7 26 5 45 62 92 35 29 51 36 87 36 39 0 44 -2 44 -23z m278 -148 c45 -51
52 -64 52 -101 0 -36 -6 -50 -39 -86 -33 -36 -44 -42 -79 -42 -33 0 -44 5 -61
29 -13 17 -41 36 -70 47 -41 14 -50 22 -53 45 -3 22 2 33 25 49 15 12 37 41
47 65 19 45 32 52 90 53 30 0 42 -8 88 -59z m-359 -19 c12 -17 37 -38 56 -47
43 -20 52 -59 21 -84 -13 -10 -33 -38 -47 -63 -23 -43 -26 -46 -66 -46 -36 0
-46 5 -77 41 -50 59 -53 85 -17 157 17 33 38 63 48 65 42 11 60 6 82 -23z
m345 -246 c3 -9 6 -31 6 -49 0 -24 5 -35 18 -37 13 -3 6 -12 -27 -36 -61 -45
-106 -57 -159 -43 -38 11 -42 15 -42 44 0 28 5 35 33 45 22 8 41 26 56 52 21
37 25 40 66 40 30 0 45 -5 49 -16z m-309 -34 c10 -12 34 -30 52 -41 27 -17 33
-27 31 -48 -3 -22 -10 -27 -45 -35 -37 -8 -48 -5 -95 21 -51 29 -53 32 -56 77
l-3 46 49 0 c36 0 54 -5 67 -20z m175 -385 l0 -155 45 7 45 6 0 -41 c0 -45 1
-45 -112 -57 l-58 -6 0 195 c0 194 0 195 23 199 61 12 57 21 57 -148z m-120
101 l0 -45 -47 -3 c-46 -3 -48 -4 -51 -37 l-3 -33 41 4 41 4 -3 -41 c-3 -38
-4 -40 -40 -43 -37 -3 -38 -4 -38 -44 l0 -40 50 7 50 7 0 -41 c0 -48 1 -47
-102 -56 l-78 -6 0 195 0 194 68 7 c65 6 104 11 110 14 1 0 2 -19 2 -43z
m-220 -146 l0 -170 -28 -31 c-24 -27 -37 -33 -85 -37 -50 -4 -58 -2 -83 23
l-27 27 6 165 c2 90 6 166 8 167 2 2 19 7 37 11 l32 7 0 -157 c0 -130 3 -157
15 -161 8 -4 22 -1 30 6 12 10 15 42 15 161 l0 148 28 4 c15 2 33 5 40 6 9 1
12 -39 12 -169z m-273 127 c8 -8 17 -33 20 -56 5 -36 3 -41 -15 -41 -11 0 -27
-3 -36 -6 -11 -4 -19 2 -26 20 -5 14 -15 26 -23 26 -30 0 -37 -24 -37 -132 0
-88 3 -110 15 -114 35 -14 61 46 31 70 -9 7 -12 22 -9 44 5 30 7 32 49 32 30
0 47 -5 50 -14 3 -8 2 -49 -3 -92 -10 -96 -30 -116 -118 -118 -49 -1 -59 2
-77 24 -18 22 -19 36 -16 171 3 159 7 170 63 196 36 16 111 11 132 -10z
m-1287 -7 c22 -22 28 -84 9 -95 -16 -11 -59 4 -59 20 0 21 -19 28 -35 15 -25
-20 -17 -39 35 -93 47 -49 50 -54 50 -105 0 -94 -47 -142 -125 -128 -52 10
-77 39 -73 84 3 33 6 37 35 40 26 3 32 -1 35 -20 6 -41 57 -32 58 9 0 7 -22
38 -50 68 -46 51 -50 59 -50 106 0 51 20 103 42 112 7 3 34 6 61 6 34 1 52 -4
67 -19z m204 -22 c3 -18 12 -98 21 -178 9 -80 18 -155 21 -167 4 -21 1 -23
-35 -23 -38 0 -40 2 -47 35 -6 32 -9 35 -39 35 -30 0 -33 -3 -39 -35 -7 -33
-9 -35 -47 -35 -34 0 -39 3 -35 18 3 9 28 99 57 200 l52 182 43 0 c41 0 43 -2
48 -32z m723 -159 c-3 -105 -8 -193 -10 -195 -2 -2 -18 -7 -37 -10 l-33 -7 5
119 c3 65 4 113 1 106 -3 -7 -17 -59 -32 -115 -26 -94 -30 -102 -54 -105 -24
-3 -26 0 -33 45 -3 26 -12 77 -19 113 l-12 65 -8 -112 -8 -113 -35 0 -35 0 7
103 c4 56 9 144 13 195 l6 92 47 0 c55 0 51 8 71 -137 7 -51 14 -92 15 -90 1
1 14 49 29 107 14 58 28 111 30 118 3 7 23 12 51 12 l47 0 -6 -191z m126 29
c-5 -226 -6 -228 -48 -228 l-35 0 0 88 c0 49 3 137 7 195 l6 107 37 0 37 0 -4
-162z m-658 55 c40 -138 44 -141 45 -31 0 120 3 128 47 128 34 0 35 0 29 -37
-3 -21 -8 -96 -11 -168 -9 -186 -9 -187 -53 -183 l-36 3 -30 110 -31 110 -9
-113 -8 -112 -35 0 -36 0 7 93 c3 50 9 138 12 195 l7 102 37 0 37 0 28 -97z"/>
</g>
</svg>
